<svg width="149" height="34" viewBox="0 0 149 34" fill="none" xmlns="http://www.w3.org/2000/svg">
<path fill-rule="evenodd" clip-rule="evenodd" d="M16.6733 0L28.4631 4.8835L33.3466 16.6733L28.4631 28.4631L16.6733 33.3466L4.8835 28.4631L0 16.6733L4.8835 4.8835L16.6733 0ZM27.5806 10.8308L26.0972 7.24944L24.8729 6.74233V10.8308H27.5806ZM21.7816 10.8308V5.46189L18.2113 3.98301V11.7372L18.8389 10.8308H21.7816ZM15.12 15.1277H11.9359V5.30823L15.12 3.98934L15.12 15.1277ZM8.84468 15.1277V6.58867L7.24944 7.24944L3.98617 15.1277H8.84468ZM16.3571 18.2189H3.98617L7.24944 26.0972L16.6733 30.0006L26.0972 26.0972L30.0006 16.6733L28.8611 13.9221H20.4584L19.0224 15.9959L24.5911 18.3742L14.4634 24.0113L12.9599 21.3103L17.5775 18.7402L16.3571 18.2189ZM105.236 28.7076C106.322 29.3593 107.517 29.6852 108.821 29.6852C110.124 29.6852 111.307 29.3593 112.369 28.7076C113.455 28.0317 114.312 27.1506 114.94 26.0644C115.592 24.954 115.918 23.735 115.918 22.4074L115.881 10.9294C115.881 9.60177 115.556 8.39483 114.904 7.30859C114.276 6.22234 113.431 5.35335 112.369 4.7016C111.307 4.04986 110.124 3.72398 108.821 3.72398C107.541 3.72398 106.359 4.04986 105.272 4.7016C104.186 5.35335 103.317 6.22234 102.665 7.30859C102.038 8.39483 101.724 9.60177 101.724 10.9294L101.688 22.4074C101.688 23.735 102.014 24.954 102.665 26.0644C103.317 27.1506 104.174 28.0317 105.236 28.7076ZM110.704 24.435C110.173 25.0144 109.545 25.304 108.821 25.304C108.072 25.304 107.433 25.0264 106.902 24.4712C106.371 23.8919 106.105 23.204 106.105 22.4074V10.9294C106.105 10.1087 106.371 9.4328 106.902 8.90175C107.433 8.34656 108.072 8.06896 108.821 8.06896C109.593 8.06896 110.233 8.34656 110.74 8.90175C111.247 9.45694 111.5 10.1328 111.5 10.9294L111.536 22.4074C111.536 23.1557 111.259 23.8316 110.704 24.435ZM72.7281 28.7076C73.8143 29.3593 75.0092 29.6852 76.3127 29.6852C77.6162 29.6852 78.799 29.3714 79.8611 28.7438C80.9473 28.0921 81.8042 27.2231 82.4319 26.1368C83.0836 25.0264 83.4095 23.7833 83.4095 22.4074C83.4095 20.9832 83.0595 19.7883 82.3594 18.8228C81.6594 17.8331 80.7059 17.0003 79.499 16.3244C79.4266 16.2761 79.2214 16.1675 78.8835 15.9985C78.5696 15.8296 78.2076 15.6365 77.7972 15.4192C77.3868 15.1778 77.0006 14.9726 76.6385 14.8037C76.3006 14.6106 76.0713 14.4778 75.9506 14.4054C75.0575 13.9226 74.4419 13.4157 74.104 12.8846C73.766 12.3536 73.5971 11.6898 73.5971 10.8932C73.5971 10.1208 73.8626 9.45694 74.3936 8.90175C74.9247 8.32242 75.5644 8.03275 76.3127 8.03275C77.0368 8.03275 77.6644 8.29828 78.1955 8.82933C78.7266 9.36038 78.9921 10.0483 78.9921 10.8932L79.0283 13.8623C79.0283 13.9588 79.0766 14.0071 79.1731 14.0071H83.2284C83.325 14.0071 83.3733 13.9588 83.3733 13.8623V10.8932C83.3733 9.56556 83.0474 8.3707 82.3956 7.30859C81.768 6.22234 80.9111 5.36542 79.8249 4.73781C78.7628 4.08606 77.592 3.76019 76.3127 3.76019C75.0575 3.76019 73.8867 4.074 72.8005 4.7016C71.7384 5.32921 70.8815 6.18614 70.2297 7.27238C69.578 8.33449 69.2521 9.54143 69.2521 10.8932C69.2521 12.3657 69.5659 13.6933 70.1935 14.8761C70.8453 16.0348 71.8349 17.0003 73.1626 17.7727C73.8867 18.1831 74.6592 18.6176 75.4799 19.0762C76.3006 19.5349 76.9041 19.8728 77.2903 20.0901C78.449 20.7418 79.0283 21.5142 79.0283 22.4074C79.0283 23.1798 78.7628 23.8557 78.2317 24.435C77.7007 25.0144 77.061 25.304 76.3127 25.304C75.5644 25.304 74.9247 25.0264 74.3936 24.4712C73.8626 23.8919 73.5971 23.204 73.5971 22.4074V20.7418C73.5971 20.6211 73.5488 20.5608 73.4522 20.5608H69.3969C69.2762 20.5608 69.2159 20.6211 69.2159 20.7418V22.4074C69.2159 23.735 69.5297 24.954 70.1573 26.0644C70.809 27.1506 71.666 28.0317 72.7281 28.7076ZM38.2673 29.3231C38.1466 29.3231 38.0862 29.2628 38.0862 29.1421L38.1586 4.26711C38.1586 4.17055 38.2069 4.12227 38.3035 4.12227L45.0744 4.08607C46.402 4.06193 47.609 4.37573 48.6952 5.02748C49.8056 5.67922 50.6866 6.56029 51.3384 7.67067C51.9901 8.75691 52.316 9.96385 52.316 11.2915V21.6832C52.316 23.0833 51.9781 24.3626 51.3022 25.5213C50.6263 26.6558 49.7211 27.561 48.5866 28.2369C47.4521 28.9128 46.1727 29.2628 44.7485 29.2869L38.2673 29.3231ZM42.5036 24.8695H44.7485C45.6416 24.8695 46.3899 24.5557 46.9934 23.9281C47.621 23.3005 47.9348 22.5522 47.9348 21.6832V11.2553C47.9348 10.4828 47.6452 9.81902 47.0658 9.26383C46.5106 8.6845 45.8468 8.4069 45.0744 8.43104L42.5398 8.46725L42.5036 24.8695ZM55.3097 29.3231C55.2131 29.3231 55.1649 29.2628 55.1649 29.1421L55.2011 4.26711C55.2011 4.17055 55.2493 4.12227 55.3459 4.12227H66.9687C67.0653 4.12227 67.1135 4.18262 67.1135 4.30331V8.35862C67.1135 8.45518 67.0653 8.50346 66.9687 8.50346H59.546V14.1519H66.9687C67.0653 14.1519 67.1135 14.2002 67.1135 14.2968L67.1498 18.3883C67.1498 18.4848 67.1015 18.5331 67.0049 18.5331H59.546V24.8695H67.0049C67.1015 24.8695 67.1498 24.9299 67.1498 25.0506V29.1783C67.1498 29.2749 67.1015 29.3231 67.0049 29.3231H55.3097ZM86.1087 29.3231C85.988 29.3231 85.9276 29.2628 85.9276 29.1421L86.0001 4.26711C86.0001 4.17055 86.0483 4.12227 86.1449 4.12227H93.0968C95.3176 4.12227 97.0677 4.79816 98.347 6.14993C99.6505 7.5017 100.302 9.33625 100.302 11.6536C100.302 13.3674 99.9643 14.852 99.2884 16.1072C98.6126 17.3624 97.7315 18.3279 96.6452 19.0038C95.559 19.6797 94.3762 20.0176 93.0968 20.0176H90.345V29.1421C90.345 29.2628 90.2847 29.3231 90.164 29.3231H86.1087ZM90.345 15.6365H93.0968C93.8693 15.6365 94.5331 15.2744 95.0883 14.5502C95.6676 13.8019 95.9573 12.8364 95.9573 11.6536C95.9573 10.7122 95.7038 9.93971 95.1969 9.33624C94.69 8.73278 93.99 8.43104 93.0968 8.43104L90.345 8.46725V15.6365ZM118.815 29.3231C118.719 29.3231 118.671 29.2628 118.671 29.1421L118.743 4.26711C118.743 4.17055 118.791 4.12227 118.888 4.12227H126.202C127.505 4.12227 128.7 4.44815 129.786 5.09989C130.897 5.7275 131.778 6.58443 132.43 7.67067C133.081 8.73278 133.407 9.93971 133.407 11.2915C133.407 12.1846 133.274 12.9933 133.009 13.7174C132.743 14.4175 132.43 15.0209 132.068 15.5278C131.705 16.0106 131.38 16.3727 131.09 16.6141C132.393 18.0624 133.045 19.7642 133.045 21.7194L133.081 29.1421C133.081 29.2628 133.021 29.3231 132.9 29.3231H128.809C128.712 29.3231 128.664 29.2869 128.664 29.2145V21.7194C128.664 20.8504 128.35 20.1021 127.723 19.4745C127.119 18.8228 126.371 18.4969 125.478 18.4969H123.088L123.052 29.1421C123.052 29.2628 123.003 29.3231 122.907 29.3231H118.815ZM123.088 14.1519H126.202C126.95 14.1519 127.614 13.8743 128.193 13.3191C128.773 12.7639 129.062 12.0881 129.062 11.2915C129.062 10.519 128.773 9.85523 128.193 9.30004C127.638 8.74485 126.974 8.46725 126.202 8.46725H123.088V14.1519ZM138.907 29.1421C138.907 29.2628 138.955 29.3231 139.052 29.3231H143.143C143.24 29.3231 143.288 29.2628 143.288 29.1421L143.252 8.50346H147.995C148.092 8.50346 148.14 8.44311 148.14 8.32242V4.26711C148.14 4.17055 148.08 4.12227 147.959 4.12227H134.2C134.103 4.12227 134.055 4.17055 134.055 4.26711L134.019 8.32242C134.019 8.44311 134.079 8.50346 134.2 8.50346H138.907V29.1421Z" fill="#202020"/>
<path fill-rule="evenodd" clip-rule="evenodd" d="M16.6733 0L28.4631 4.8835L33.3466 16.6733L28.4631 28.4631L16.6733 33.3466L4.8835 28.4631L0 16.6733L4.8835 4.8835L16.6733 0ZM27.5806 10.8308L26.0972 7.24944L24.8729 6.74233V10.8308H27.5806ZM21.7816 10.8308V5.46189L18.2113 3.98301V11.7372L18.8389 10.8308H21.7816ZM15.12 15.1277H11.9359V5.30823L15.12 3.98934L15.12 15.1277ZM8.84468 15.1277V6.58867L7.24944 7.24944L3.98617 15.1277H8.84468ZM16.3571 18.2189H3.98617L7.24944 26.0972L16.6733 30.0006L26.0972 26.0972L30.0006 16.6733L28.8611 13.9221H20.4584L19.0224 15.9959L24.5911 18.3742L14.4634 24.0113L12.9599 21.3103L17.5775 18.7402L16.3571 18.2189ZM105.236 28.7076C106.322 29.3593 107.517 29.6852 108.821 29.6852C110.124 29.6852 111.307 29.3593 112.369 28.7076C113.455 28.0317 114.312 27.1506 114.94 26.0644C115.592 24.954 115.918 23.735 115.918 22.4074L115.881 10.9294C115.881 9.60177 115.556 8.39483 114.904 7.30859C114.276 6.22234 113.431 5.35335 112.369 4.7016C111.307 4.04986 110.124 3.72398 108.821 3.72398C107.541 3.72398 106.359 4.04986 105.272 4.7016C104.186 5.35335 103.317 6.22234 102.665 7.30859C102.038 8.39483 101.724 9.60177 101.724 10.9294L101.688 22.4074C101.688 23.735 102.014 24.954 102.665 26.0644C103.317 27.1506 104.174 28.0317 105.236 28.7076ZM110.704 24.435C110.173 25.0144 109.545 25.304 108.821 25.304C108.072 25.304 107.433 25.0264 106.902 24.4712C106.371 23.8919 106.105 23.204 106.105 22.4074V10.9294C106.105 10.1087 106.371 9.4328 106.902 8.90175C107.433 8.34656 108.072 8.06896 108.821 8.06896C109.593 8.06896 110.233 8.34656 110.74 8.90175C111.247 9.45694 111.5 10.1328 111.5 10.9294L111.536 22.4074C111.536 23.1557 111.259 23.8316 110.704 24.435ZM72.7281 28.7076C73.8143 29.3593 75.0092 29.6852 76.3127 29.6852C77.6162 29.6852 78.799 29.3714 79.8611 28.7438C80.9473 28.0921 81.8042 27.2231 82.4319 26.1368C83.0836 25.0264 83.4095 23.7833 83.4095 22.4074C83.4095 20.9832 83.0595 19.7883 82.3594 18.8228C81.6594 17.8331 80.7059 17.0003 79.499 16.3244C79.4266 16.2761 79.2214 16.1675 78.8835 15.9985C78.5696 15.8296 78.2076 15.6365 77.7972 15.4192C77.3868 15.1778 77.0006 14.9726 76.6385 14.8037C76.3006 14.6106 76.0713 14.4778 75.9506 14.4054C75.0575 13.9226 74.4419 13.4157 74.104 12.8846C73.766 12.3536 73.5971 11.6898 73.5971 10.8932C73.5971 10.1208 73.8626 9.45694 74.3936 8.90175C74.9247 8.32242 75.5644 8.03275 76.3127 8.03275C77.0368 8.03275 77.6644 8.29828 78.1955 8.82933C78.7266 9.36038 78.9921 10.0483 78.9921 10.8932L79.0283 13.8623C79.0283 13.9588 79.0766 14.0071 79.1731 14.0071H83.2284C83.325 14.0071 83.3733 13.9588 83.3733 13.8623V10.8932C83.3733 9.56556 83.0474 8.3707 82.3956 7.30859C81.768 6.22234 80.9111 5.36542 79.8249 4.73781C78.7628 4.08606 77.592 3.76019 76.3127 3.76019C75.0575 3.76019 73.8867 4.074 72.8005 4.7016C71.7384 5.32921 70.8815 6.18614 70.2297 7.27238C69.578 8.33449 69.2521 9.54143 69.2521 10.8932C69.2521 12.3657 69.5659 13.6933 70.1935 14.8761C70.8453 16.0348 71.8349 17.0003 73.1626 17.7727C73.8867 18.1831 74.6592 18.6176 75.4799 19.0762C76.3006 19.5349 76.9041 19.8728 77.2903 20.0901C78.449 20.7418 79.0283 21.5142 79.0283 22.4074C79.0283 23.1798 78.7628 23.8557 78.2317 24.435C77.7007 25.0144 77.061 25.304 76.3127 25.304C75.5644 25.304 74.9247 25.0264 74.3936 24.4712C73.8626 23.8919 73.5971 23.204 73.5971 22.4074V20.7418C73.5971 20.6211 73.5488 20.5608 73.4522 20.5608H69.3969C69.2762 20.5608 69.2159 20.6211 69.2159 20.7418V22.4074C69.2159 23.735 69.5297 24.954 70.1573 26.0644C70.809 27.1506 71.666 28.0317 72.7281 28.7076ZM38.2673 29.3231C38.1466 29.3231 38.0862 29.2628 38.0862 29.1421L38.1586 4.26711C38.1586 4.17055 38.2069 4.12227 38.3035 4.12227L45.0744 4.08607C46.402 4.06193 47.609 4.37573 48.6952 5.02748C49.8056 5.67922 50.6866 6.56029 51.3384 7.67067C51.9901 8.75691 52.316 9.96385 52.316 11.2915V21.6832C52.316 23.0833 51.9781 24.3626 51.3022 25.5213C50.6263 26.6558 49.7211 27.561 48.5866 28.2369C47.4521 28.9128 46.1727 29.2628 44.7485 29.2869L38.2673 29.3231ZM42.5036 24.8695H44.7485C45.6416 24.8695 46.3899 24.5557 46.9934 23.9281C47.621 23.3005 47.9348 22.5522 47.9348 21.6832V11.2553C47.9348 10.4828 47.6452 9.81902 47.0658 9.26383C46.5106 8.6845 45.8468 8.4069 45.0744 8.43104L42.5398 8.46725L42.5036 24.8695ZM55.3097 29.3231C55.2131 29.3231 55.1649 29.2628 55.1649 29.1421L55.2011 4.26711C55.2011 4.17055 55.2493 4.12227 55.3459 4.12227H66.9687C67.0653 4.12227 67.1135 4.18262 67.1135 4.30331V8.35862C67.1135 8.45518 67.0653 8.50346 66.9687 8.50346H59.546V14.1519H66.9687C67.0653 14.1519 67.1135 14.2002 67.1135 14.2968L67.1498 18.3883C67.1498 18.4848 67.1015 18.5331 67.0049 18.5331H59.546V24.8695H67.0049C67.1015 24.8695 67.1498 24.9299 67.1498 25.0506V29.1783C67.1498 29.2749 67.1015 29.3231 67.0049 29.3231H55.3097ZM86.1087 29.3231C85.988 29.3231 85.9276 29.2628 85.9276 29.1421L86.0001 4.26711C86.0001 4.17055 86.0483 4.12227 86.1449 4.12227H93.0968C95.3176 4.12227 97.0677 4.79816 98.347 6.14993C99.6505 7.5017 100.302 9.33625 100.302 11.6536C100.302 13.3674 99.9643 14.852 99.2884 16.1072C98.6126 17.3624 97.7315 18.3279 96.6452 19.0038C95.559 19.6797 94.3762 20.0176 93.0968 20.0176H90.345V29.1421C90.345 29.2628 90.2847 29.3231 90.164 29.3231H86.1087ZM90.345 15.6365H93.0968C93.8693 15.6365 94.5331 15.2744 95.0883 14.5502C95.6676 13.8019 95.9573 12.8364 95.9573 11.6536C95.9573 10.7122 95.7038 9.93971 95.1969 9.33624C94.69 8.73278 93.99 8.43104 93.0968 8.43104L90.345 8.46725V15.6365ZM118.815 29.3231C118.719 29.3231 118.671 29.2628 118.671 29.1421L118.743 4.26711C118.743 4.17055 118.791 4.12227 118.888 4.12227H126.202C127.505 4.12227 128.7 4.44815 129.786 5.09989C130.897 5.7275 131.778 6.58443 132.43 7.67067C133.081 8.73278 133.407 9.93971 133.407 11.2915C133.407 12.1846 133.274 12.9933 133.009 13.7174C132.743 14.4175 132.43 15.0209 132.068 15.5278C131.705 16.0106 131.38 16.3727 131.09 16.6141C132.393 18.0624 133.045 19.7642 133.045 21.7194L133.081 29.1421C133.081 29.2628 133.021 29.3231 132.9 29.3231H128.809C128.712 29.3231 128.664 29.2869 128.664 29.2145V21.7194C128.664 20.8504 128.35 20.1021 127.723 19.4745C127.119 18.8228 126.371 18.4969 125.478 18.4969H123.088L123.052 29.1421C123.052 29.2628 123.003 29.3231 122.907 29.3231H118.815ZM123.088 14.1519H126.202C126.95 14.1519 127.614 13.8743 128.193 13.3191C128.773 12.7639 129.062 12.0881 129.062 11.2915C129.062 10.519 128.773 9.85523 128.193 9.30004C127.638 8.74485 126.974 8.46725 126.202 8.46725H123.088V14.1519ZM138.907 29.1421C138.907 29.2628 138.955 29.3231 139.052 29.3231H143.143C143.24 29.3231 143.288 29.2628 143.288 29.1421L143.252 8.50346H147.995C148.092 8.50346 148.14 8.44311 148.14 8.32242V4.26711C148.14 4.17055 148.08 4.12227 147.959 4.12227H134.2C134.103 4.12227 134.055 4.17055 134.055 4.26711L134.019 8.32242C134.019 8.44311 134.079 8.50346 134.2 8.50346H138.907V29.1421Z" fill="url(#paint0_linear_197_116)"/>
<defs>
<linearGradient id="paint0_linear_197_116" x1="73.9141" y1="0" x2="73.9141" y2="33.3466" gradientUnits="userSpaceOnUse">
<stop stop-color="#FFEED5"/>
<stop offset="0.415922" stop-color="#FFBE5A"/>
<stop offset="0.806547" stop-color="#FF785A"/>
</linearGradient>
</defs>
</svg>
